HIERARCHY
ROOT Hips
{
  OFFSET 1.44925e-005 102.336 -0.101585
  CHANNELS 6 Xposition Yposition Zposition Zrotation Xrotation Yrotation
  JOINT LeftUpLeg
  {
    OFFSET 8.9458 -8.66707 0.101652
    CHANNELS 3 Zrotation Xrotation Yrotation
    JOINT LeftLeg
    {
      OFFSET 0 -44.4227 1.3727
      CHANNELS 3 Zrotation Xrotation Yrotation
      JOINT LeftFoot
      {
        OFFSET -0.253549 -42.0924 -1.46059
        CHANNELS 3 Zrotation Xrotation Yrotation
        JOINT LeftToes
        {
          OFFSET -0.04 -4.41509 8.4991
          CHANNELS 3 Zrotation Xrotation Yrotation
          End Site
          {
            OFFSET 0.08 -0.047448 9.77979
          }
        }
      }
    }
  }
  JOINT Spine
  {
    OFFSET 0 11.8905 0
    CHANNELS 3 Zrotation Xrotation Yrotation
    JOINT Spine1
    {
      OFFSET 0 25.6574 0.127663
      CHANNELS 3 Zrotation Xrotation Yrotation
      JOINT RightShoulder
      {
        OFFSET -8.99 -0.362252 -0.22
        CHANNELS 3 Zrotation Xrotation Yrotation
        JOINT RightArm
        {
          OFFSET -10.2827 -0.00338 0.322123
          CHANNELS 3 Zrotation Xrotation Yrotation
          JOINT RightForeArm
          {
            OFFSET -26.364 0.099144 -1.42434
            CHANNELS 3 Zrotation Xrotation Yrotation
            JOINT RightHand
            {
              OFFSET -22.0324 0.085362 1.02216
              CHANNELS 3 Zrotation Xrotation Yrotation
              End Site
              {
                OFFSET -13.3284 -0.6 1.50291
              }
            }
          }
        }
      }
      JOINT LeftShoulder1
      {
        OFFSET 8.99 -0.362252 -0.22
        CHANNELS 3 Zrotation Xrotation Yrotation
        JOINT LeftArm
        {
          OFFSET 10.2827 -0.00337999 0.322123
          CHANNELS 3 Zrotation Xrotation Yrotation
          JOINT LeftForeArm
          {
            OFFSET 26.2597 0.099144 -1.42434
            CHANNELS 3 Zrotation Xrotation Yrotation
            JOINT LeftHand
            {
              OFFSET 22.0902 0.085362 1.02216
              CHANNELS 3 Zrotation Xrotation Yrotation
              End Site
              {
                OFFSET 13.419 -0.6 1.50291
              }
            }
          }
        }
      }
      JOINT Head
      {
        OFFSET 0 8.73416 0.011341
        CHANNELS 3 Zrotation Xrotation Yrotation
        End Site
        {
          OFFSET -0.29 12.7742 2.51395
        }
      }
    }
  }
  JOINT RightUpLeg
  {
    OFFSET -8.9458 -8.66707 0.101652
    CHANNELS 3 Zrotation Xrotation Yrotation
    JOINT RightLeg
    {
      OFFSET 0 -44.4227 1.3727
      CHANNELS 3 Zrotation Xrotation Yrotation
      JOINT RightFoot
      {
        OFFSET 0.253549 -42.0924 -1.46059
        CHANNELS 3 Zrotation Xrotation Yrotation
        JOINT RightToes
        {
          OFFSET 0.04 -4.41509 8.4991
          CHANNELS 3 Zrotation Xrotation Yrotation
          End Site
          {
            OFFSET -0.08 -0.137448 9.77979
          }
        }
      }
    }
  }
}
MOTION
Frames:	19
Frame Time:	0.0333333
183.384 102.294 4.24364 -7.0896 0.181214 -89.7178 1.26248 7.85072 3.68335 1.55031 12.2861 15.4753 -5.70093 -15.8369 -0.341583 -1.34741e-009 8.7522e-006 -1.47856e-008 -1.29759 -4.32171 -0.711765 1.14826 -0.118824 -0.61775 36.6262 1.70397 -0.0356955 39.0004 -24.9306 -1.49826 8.93938 42.6869 4.69132 -8.93739 9.51797 -0.0344424 -41.1377 3.33886 -3.5186 -30.9379 -18.8536 7.54664 -7.42348 44.6718 -9.12793 5.82328 9.61819 -0.917488 3.15933 9.15731 -2.60872 -0.78652 9.69784 -5.88664 0.292163 10.4734 -12.4063 4.66693 -16.5421 0.141448 0.0462048 0.000530889 0.662642 
183.381 102.294 4.25681 -7.07676 0.181903 -89.724 1.24722 7.83607 3.66396 1.56298 12.2998 15.4937 -5.73863 -15.8369 -0.341583 -1.34741e-009 8.7522e-006 -1.47856e-008 -1.36525 -4.31135 -0.730357 1.24322 -0.146721 -0.650559 36.5741 1.70397 -0.0356955 39.0314 -24.9415 -1.51899 8.89748 42.6949 4.75448 -8.99029 9.5175 -0.0634187 -41.1426 3.33631 -3.51709 -30.9366 -18.9842 7.50783 -7.48854 44.8945 -9.00043 5.82328 9.61819 -0.917488 3.11428 9.15515 -2.58461 -0.776802 9.68999 -5.8555 0.262496 10.4563 -12.4389 4.68276 -16.53 0.14144 0.0462048 0.000530889 0.662642 
183.368 102.294 4.28485 -7.04436 0.170709 -89.7551 1.19881 7.81378 3.62032 1.57934 12.3049 15.5657 -5.75344 -15.8382 -0.341585 -1.34741e-009 8.7522e-006 -1.47856e-008 -1.42834 -4.27646 -0.7726 1.29814 -0.294268 -0.698379 36.5883 1.70397 -0.0356955 39.0406 -24.9238 -1.57566 8.89159 42.6996 4.77495 -9.14661 9.50456 0.0181635 -40.9825 3.32052 -3.50751 -31.0874 -19.2462 7.54628 -7.55052 45.2237 -8.84634 5.82328 9.61819 -0.917488 3.0216 9.05753 -2.51187 -0.781668 9.65573 -5.80961 0.202377 10.457 -12.4566 4.72572 -16.5194 0.142412 0.0462048 0.000530889 0.662642 
183.339 102.293 4.3153 -7.00147 0.163899 -89.7738 1.15553 7.77426 3.57398 1.59501 12.3304 15.6349 -5.73705 -15.8514 -0.341608 -1.34741e-009 8.7522e-006 -1.47856e-008 -1.39596 -4.28559 -0.821138 1.21253 -0.46573 -0.732329 36.6954 1.70397 -0.037005 39.0152 -24.9177 -1.64894 8.95213 42.6906 4.6995 -9.18325 9.49892 0.0736425 -40.6823 3.28829 -3.48679 -31.3541 -19.5719 7.64327 -7.52458 45.5395 -8.78042 5.82328 9.61819 -0.917488 2.98797 8.96192 -2.47213 -0.804172 9.61623 -5.80109 0.181338 10.4728 -12.4427 4.76585 -16.5245 0.14579 0.0462048 0.000530889 0.662642 
183.301 102.289 4.34027 -6.98199 0.179503 -89.7453 1.14961 7.74997 3.54478 1.61812 12.3769 15.6332 -5.73786 -15.8888 -0.341671 -1.34741e-009 8.7522e-006 -1.47856e-008 -1.29302 -4.36887 -0.855066 1.05588 -0.51892 -0.74541 36.8502 1.70413 -0.0438768 38.9361 -24.9862 -1.74423 8.97782 42.7485 4.63372 -8.95903 9.51143 0.0460164 -40.4419 3.26079 -3.46632 -31.5302 -19.8122 7.66551 -7.46353 45.7888 -8.77544 5.82328 9.61819 -0.917488 3.09356 9.11928 -2.54152 -0.814683 9.63629 -5.82908 0.215869 10.4503 -12.4405 4.77086 -16.5326 0.148107 0.0462048 0.000530889 0.662642 
183.259 102.286 4.36158 -7.00171 0.203539 -89.6962 1.15863 7.78813 3.5338 1.64772 12.3845 15.5887 -5.75754 -15.9178 -0.341928 -1.34741e-009 8.7522e-006 -1.47856e-008 -1.20855 -4.43508 -0.87459 0.929179 -0.52359 -0.749736 37.0256 1.70535 -0.0551793 38.7946 -25.0968 -1.89211 8.92706 42.9281 4.64421 -8.67956 9.52102 0.100123 -40.3338 3.24635 -3.45257 -31.5436 -19.8353 7.65028 -7.42361 45.8094 -8.81109 5.82328 9.61819 -0.917488 3.21709 9.2549 -2.75395 -0.792006 9.72643 -5.83047 0.228337 10.3791 -12.488 4.76498 -16.5262 0.149987 0.0462048 0.000530889 0.662642 
183.219 102.284 4.38384 -7.03165 0.22058 -89.6629 1.15781 7.86188 3.5358 1.66989 12.3445 15.5637 -5.7595 -15.9333 -0.343369 -1.34741e-009 8.7522e-006 -1.47856e-008 -1.19682 -4.42244 -0.903992 0.883702 -0.617086 -0.773291 37.1647 1.7071 -0.0624906 38.6793 -25.1609 -2.06657 8.90123 43.0578 4.64597 -8.64193 9.51165 0.268011 -40.2905 3.23996 -3.44574 -31.4933 -19.6574 7.77071 -7.34339 45.4482 -8.97528 5.82328 9.61819 -0.917488 3.15259 8.80778 -3.25252 -0.743253 9.8187 -5.76959 0.170522 10.3117 -12.5832 4.79402 -16.5098 0.151393 0.0462048 0.000530889 0.662642 
183.178 102.279 4.40906 -7.04325 0.245237 -89.6306 1.16978 7.90024 3.55281 1.6791 12.3373 15.5402 -5.74445 -15.9782 -0.345473 -1.34741e-009 8.7522e-006 -1.47856e-008 -1.2535 -4.43027 -0.95084 0.956894 -0.701166 -0.831354 37.1785 1.7089 -0.0602129 38.6938 -25.1893 -2.1769 8.97894 42.9252 4.55073 -8.86227 9.49612 0.338738 -40.3386 3.2464 -3.45191 -31.4109 -19.3581 8.00594 -7.17248 44.8415 -9.297 5.82328 9.61819 -0.917488 2.91856 7.95133 -4.19877 -0.690004 9.87971 -5.69994 0.113311 10.2652 -12.6853 4.84603 -16.4981 0.152297 0.0462048 0.000530889 0.662642 
183.129 102.272 4.43902 -7.04908 0.291132 -89.5866 1.2095 7.9041 3.5805 1.68749 12.3983 15.4767 -5.73984 -16.0568 -0.347818 -1.34741e-009 8.7522e-006 -1.47856e-008 -1.36056 -4.56795 -0.983336 1.1678 -0.574576 -0.899149 37.0747 1.71024 -0.0528916 38.7773 -25.2833 -2.18359 9.07554 42.6789 4.4123 -9.10082 9.49171 0.229976 -40.5717 3.27523 -3.47652 -31.2236 -18.9909 8.11286 -7.0262 44.3837 -9.58562 5.82328 9.61819 -0.917488 2.73784 7.46855 -5.36207 -0.654684 9.95954 -5.69024 0.133817 10.187 -12.7349 4.86936 -16.4895 0.152438 0.0462048 0.000530889 0.662642 
183.074 102.269 4.47329 -7.07053 0.33273 -89.5752 1.23461 7.93993 3.60115 1.7014 12.4498 15.4241 -5.73792 -16.1076 -0.349864 -1.34741e-009 8.7522e-006 -1.47856e-008 -1.50696 -4.7752 -0.974457 1.45412 -0.286141 -0.93896 36.9714 1.71064 -0.0471475 38.7822 -25.4289 -2.14181 9.08511 42.6923 4.32552 -9.14599 9.49578 0.132478 -40.9231 3.31742 -3.51038 -30.9522 -18.6594 7.99866 -7.05143 44.2948 -9.62676 5.82328 9.61819 -0.917488 2.65557 7.38579 -6.08788 -0.651327 10.0777 -5.7243 0.185839 10.0724 -12.7043 4.85949 -16.4753 0.151932 0.0462048 0.000530889 0.662642 
183.025 102.27 4.50657 -7.1008 0.341417 -89.6334 1.2116 8.02433 3.61152 1.70371 12.4335 15.4583 -5.71802 -16.1111 -0.351142 -1.34741e-009 8.7522e-006 -1.47856e-008 -1.67086 -4.92694 -0.945546 1.71402 -0.0637108 -0.950065 36.8927 1.7096 -0.0396039 38.7524 -25.4687 -2.1045 9.04264 42.9582 4.30423 -9.01584 9.50226 0.153098 -41.221 3.35362 -3.53944 -30.7196 -18.5212 7.85989 -7.21569 44.3814 -9.45617 5.82328 9.61819 -0.917488 2.4364 6.9954 -5.92108 -0.671971 10.1642 -5.73619 0.177559 10.0183 -12.6295 4.86374 -16.4681 0.15475 0.0462048 0.000530889 0.662642 
182.984 102.265 4.53664 -7.12842 0.337015 -89.7267 1.17877 8.11116 3.63561 1.67743 12.401 15.5447 -5.69362 -16.1329 -0.351333 -1.34741e-009 8.7522e-006 -1.47856e-008 -1.80641 -5.01459 -0.928177 1.90964 0.0323587 -0.956542 36.7072 1.7064 -0.0274038 38.9068 -25.3704 -2.07031 9.02383 43.05 4.337 -8.92577 9.50568 0.133618 -41.4294 3.3799 -3.56143 -30.5627 -18.579 7.86419 -7.3523 44.3478 -9.29723 5.82328 9.61819 -0.917488 2.09947 6.3122 -5.10054 -0.691239 10.1819 -5.7159 0.117893 10.0761 -12.5564 4.90489 -16.4904 0.158782 0.0462048 0.000530889 0.662642 
182.941 102.251 4.57087 -7.15981 0.360828 -89.8081 1.18293 8.18087 3.68622 1.63744 12.4096 15.5914 -5.67023 -16.2053 -0.350063 -1.34741e-009 8.7522e-006 -1.47856e-008 -1.86368 -5.1051 -0.910999 2.04974 0.127783 -0.956331 36.3893 1.69674 -0.0232263 39.2642 -25.3347 -2.03567 8.99653 42.8137 4.43933 -9.0296 9.50541 -0.0215939 -41.5965 3.4006 -3.57815 -30.4592 -18.6255 7.93051 -7.36965 44.1922 -9.28769 5.82328 9.61819 -0.917488 1.95184 6.1102 -4.30649 -0.693347 10.2023 -5.70545 0.0827 10.1423 -12.4808 4.96223 -16.5274 0.162693 0.0462048 0.000530889 0.662642 
182.889 102.241 4.61488 -7.19325 0.411352 -89.8793 1.20188 8.25014 3.73301 1.61798 12.4305 15.5977 -5.60531 -16.2642 -0.346406 -1.34741e-009 8.7522e-006 -1.47856e-008 -1.84131 -5.21439 -0.876797 2.11696 0.279932 -0.935037 36.1807 1.68476 -0.0338491 39.4981 -25.4696 -2.0013 8.9147 42.594 4.57152 -9.21976 9.50361 -0.138915 -41.6536 3.40766 -3.58377 -30.4822 -18.5467 7.9303 -7.30466 44.1154 -9.38338 5.82328 9.61819 -0.917488 1.98626 6.38752 -4.1586 -0.683167 10.2819 -5.70921 0.0800421 10.103 -12.3951 5.01014 -16.5324 0.165123 0.0462048 0.000530889 0.662642 
182.845 102.24 4.66089 -7.20689 0.449805 -89.948 1.18973 8.30799 3.74114 1.62798 12.419 15.6344 -5.48034 -16.2612 -0.336581 -1.34741e-009 8.7522e-006 -1.47856e-008 -1.81013 -5.2938 -0.859654 2.11274 0.387061 -0.920867 36.292 1.69009 -0.0306856 39.3316 -25.551 -1.95135 8.85577 42.5937 4.63221 -9.26369 9.50198 -0.071467 -41.5335 3.39396 -3.57427 -30.6645 -18.4789 7.91219 -7.23745 44.1347 -9.46951 5.82328 9.61819 -0.917488 1.88958 6.14862 -4.80582 -0.67035 10.3616 -5.68855 0.0544284 10.0054 -12.3381 5.0376 -16.4943 0.165632 0.0462048 0.000530889 0.662642 
182.823 102.239 4.6985 -7.19012 0.459811 -90.0022 1.15146 8.32582 3.72219 1.6392 12.3847 15.7166 -5.36264 -16.2379 -0.326549 -1.34741e-009 8.7522e-006 -1.47856e-008 -1.84449 -5.27941 -0.893559 2.11472 0.318971 -0.951857 36.5842 1.71821 0.0106444 38.9088 -25.3425 -1.89586 8.91443 42.5646 4.59787 -9.11553 9.50214 0.0793936 -41.3806 3.37561 -3.55983 -30.8312 -18.5225 7.98993 -7.23921 44.0532 -9.47046 5.82328 9.61819 -0.917488 1.6146 5.33704 -5.62541 -0.664789 10.3633 -5.64169 -0.00340015 9.97447 -12.3246 5.05278 -16.4629 0.165854 0.0462048 0.000530889 0.662642 
182.82 102.24 4.72913 -7.15414 0.457358 -90.052 1.11966 8.30905 3.71208 1.62421 12.3522 15.7989 -5.31438 -16.2321 -0.322612 -1.34741e-009 8.7522e-006 -1.47856e-008 -1.93503 -5.13516 -0.934692 2.18668 0.044403 -0.996719 36.7515 1.74672 0.062988 38.5986 -24.9976 -1.90131 9.01576 42.3595 4.57879 -8.9201 9.50525 0.175898 -41.3712 3.37082 -3.5552 -30.83 -18.57 8.1385 -7.30572 43.8438 -9.41066 5.82328 9.61819 -0.917488 1.57629 5.06572 -5.67714 -0.680286 10.2982 -5.6109 -0.0464474 10.0205 -12.2943 5.0817 -16.4705 0.166411 0.0462048 0.000530889 0.662642 
182.82 102.244 4.75876 -7.10725 0.457666 -90.1223 1.10183 8.277 3.72026 1.589 12.3302 15.8568 -5.29438 -16.2164 -0.320431 -1.34741e-009 8.7522e-006 -1.47856e-008 -2.01257 -4.91612 -0.917235 2.28405 -0.318644 -0.99039 36.7241 1.75425 0.0828631 38.5339 -24.8423 -1.99864 9.01931 42.2133 4.65284 -8.79914 9.50589 0.239413 -41.4378 3.36939 -3.56089 -30.7873 -18.5482 8.22757 -7.31407 43.7702 -9.41368 5.82328 9.61819 -0.917488 1.86394 5.78979 -4.95748 -0.717025 10.2214 -5.61221 -0.0526956 10.0545 -12.2122 5.12622 -16.4782 0.167073 0.0462048 0.000530889 0.662642 
182.822 102.252 4.78547 -7.05517 0.461707 -90.1924 1.09102 8.22931 3.73307 1.55711 12.3318 15.8924 -5.22992 -16.1816 -0.314079 -1.34741e-009 8.7522e-006 -1.47856e-008 -2.03941 -4.75589 -0.857595 2.3215 -0.569618 -0.93701 36.6678 1.7447 0.0654368 38.5799 -24.9107 -2.092 8.95669 42.2588 4.72609 -8.84266 9.50013 0.293512 -41.4216 3.36971 -3.56402 -30.8693 -18.5259 8.1931 -7.16414 43.9591 -9.56931 5.82328 9.61819 -0.917488 1.97329 6.59557 -4.56363 -0.754629 10.1539 -5.62803 -0.0375565 10.0531 -12.131 5.14148 -16.4539 0.167761 0.0462048 0.000530889 0.662642 
